REM DISCID 4E0E0406
REM COMMENT "ExactAudioCopy v0.99pb4"
PERFORMER "Various"
TITLE "Bleak..."
FILE "Various - Bleak....flac" WAVE
  TRACK 01 AUDIO
    TITLE "When Even Tomorrow  Looks Away"
    PERFORMER "Austere"
    INDEX 01 00:00:00
  TRACK 02 AUDIO
    TITLE "Instrumental"
    PERFORMER "Austere"
    INDEX 01 13:54:60
  TRACK 03 AUDIO
    TITLE "There's Nothing Left..."
    PERFORMER "Austere"
    INDEX 01 15:49:21
  TRACK 04 AUDIO
    TITLE "From Nowhere..."
    PERFORMER "Isolation"
    INDEX 01 29:28:05
  TRACK 05 AUDIO
    TITLE "Mosaic"
    PERFORMER "Isolation"
    INDEX 01 35:15:36
  TRACK 06 AUDIO
    TITLE "...To Nowhere"
    PERFORMER "Isolation"
    INDEX 01 51:25:46
